HIERARCHY
ROOT Hips
{
	OFFSET	0.00	0.00	0.00
	CHANNELS 6 Xposition Yposition Zposition Zrotation Xrotation Yrotation
	JOINT LeftUpLeg
	{
		OFFSET	 0.126116	-0.014019	-0.065224
		CHANNELS 3 Zrotation Xrotation Yrotation
		JOINT LeftLeg
		{
			OFFSET	 0.000000	 0.000000	 0.569914
			CHANNELS 3 Zrotation Xrotation Yrotation
			JOINT LeftFoot
			{
				OFFSET	 0.000000	 0.000000	 0.544423
				CHANNELS 3 Zrotation Xrotation Yrotation
				JOINT LeftToeBase
				{
					OFFSET	 0.000000	 0.000000	 0.207117
					CHANNELS 3 Zrotation Xrotation Yrotation
					End Site
					{
						OFFSET	 0.000000	 0.000000	 0.207117
					}
				}
			}
		}
	}
	JOINT RightUpLeg
	{
		OFFSET	-0.124023	-0.008373	-0.065224
		CHANNELS 3 Zrotation Xrotation Yrotation
		JOINT RightLeg
		{
			OFFSET	 0.000000	 0.000000	 0.570047
			CHANNELS 3 Zrotation Xrotation Yrotation
			JOINT RightFoot
			{
				OFFSET	 0.000000	 0.000000	 0.544354
				CHANNELS 3 Zrotation Xrotation Yrotation
				JOINT RightToeBase
				{
					OFFSET	 0.000000	 0.000000	 0.207540
					CHANNELS 3 Zrotation Xrotation Yrotation
					End Site
					{
						OFFSET	 0.000000	 0.000000	 0.207540
					}
				}
			}
		}
	}
	JOINT Spine
	{
		OFFSET	 0.000184	-0.007763	 0.117403
		CHANNELS 3 Zrotation Xrotation Yrotation
		JOINT Spine1
		{
			OFFSET	 0.000000	 0.000000	 0.137269
			CHANNELS 3 Zrotation Xrotation Yrotation
			JOINT Spine2
			{
				OFFSET	 0.000000	 0.000000	 0.156879
				CHANNELS 3 Zrotation Xrotation Yrotation
				JOINT LeftShoulder
				{
					OFFSET	 0.080501	-0.002496	 0.160144
					CHANNELS 3 Zrotation Xrotation Yrotation
					JOINT LeftArm
					{
						OFFSET	 0.000000	 0.000000	 0.164363
						CHANNELS 3 Zrotation Xrotation Yrotation
						JOINT LeftForeArm
						{
							OFFSET	 0.000000	 0.000000	 0.364576
							CHANNELS 3 Zrotation Xrotation Yrotation
							JOINT LeftHand
							{
								OFFSET	 0.000000	 0.000000	 0.360812
								CHANNELS 3 Zrotation Xrotation Yrotation
								JOINT LeftHandIndex1
								{
									OFFSET	 0.000000	 0.000000	 0.086006
									CHANNELS 3 Zrotation Xrotation Yrotation
									JOINT LeftHandIndex2
									{
										OFFSET	 0.000000	 0.000000	 0.047236
										CHANNELS 3 Zrotation Xrotation Yrotation
										JOINT LeftHandIndex3
										{
											OFFSET	-0.004284	-0.000551	 0.038166
											CHANNELS 3 Zrotation Xrotation Yrotation
											End Site
											{
												OFFSET	-0.004284	-0.000551	 0.038166
											}
										}
									}
								}
							}
						}
					}
				}
				JOINT Neck
				{
					OFFSET	 0.000000	 0.000000	 0.176489
					CHANNELS 3 Zrotation Xrotation Yrotation
					JOINT Head
					{
						OFFSET	 0.000000	-0.001747	 0.077940
						CHANNELS 3 Zrotation Xrotation Yrotation
						End Site
						{
							OFFSET	 0.000000	-0.001747	 0.077940
						}
					}
				}
				JOINT RightShoulder
				{
					OFFSET	-0.080363	 0.000306	 0.159706
					CHANNELS 3 Zrotation Xrotation Yrotation
					JOINT RightArm
					{
						OFFSET	 0.000000	 0.000000	 0.164196
						CHANNELS 3 Zrotation Xrotation Yrotation
						JOINT RightForeArm
						{
							OFFSET	 0.000000	 0.000000	 0.365611
							CHANNELS 3 Zrotation Xrotation Yrotation
							JOINT RightHand
							{
								OFFSET	 0.000000	 0.000000	 0.360648
								CHANNELS 3 Zrotation Xrotation Yrotation
								JOINT RightHandIndex1
								{
									OFFSET	 0.000000	 0.000000	 0.069977
									CHANNELS 3 Zrotation Xrotation Yrotation
									JOINT RightHandIndex2
									{
										OFFSET	 0.000000	 0.000000	 0.052305
										CHANNELS 3 Zrotation Xrotation Yrotation
										JOINT RightHandIndex3
										{
											OFFSET	 0.009002	-0.000782	 0.042196
											CHANNELS 3 Zrotation Xrotation Yrotation
											End Site
											{
												OFFSET	 0.009002	-0.000782	 0.042196
											}
										}
									}
								}
							}
						}
					}
				}
			}
		}
	}
}
MOTION
Frames:    6
Frame Time: 0.03333334
 6.670179	 7.162998	 0.101706	-84.683000	 0.666262	 3.698358	 5.050690	-3.999255	 176.481800	-11.231800	-33.765930	-5.154144	 171.932700	 86.560030	 179.422700	-2.377424	 30.188850	-0.037987	 1.761639	-12.672810	 178.965300	 3.660646	-47.645080	 5.723129	-175.415900	 82.085620	-178.643000	 2.403711	 22.122840	-0.130628	-5.841341	 1.326299	-2.013260	-8.724432	-1.192660	-0.705488	-10.067750	-3.039372	-0.933571	-91.809830	 77.614650	 179.127000	 36.752300	 69.874990	-39.774620	-8.001706	-3.997264	-19.917780	 6.431783	 3.488605	-5.340953	-3.812334	 37.924440	-2.927599	-2.450526	 36.184240	 0.754587	-1.378229	 35.397820	-2.634230	 0.523873	 6.065001	-3.200986	-2.268986	-13.482900	-2.299314	 89.765410	 79.260860	-179.645800	-36.404340	 70.342870	 39.107720	 4.252129	-7.806705	 30.683840	-12.273240	 2.453559	 9.590321	 6.437017	 35.671460	-0.771858	 2.830251	 35.756010	-7.813440	-2.350882	 35.473990	 5.254307
 6.677041	 7.161876	 0.101072	-84.421500	 0.749882	 3.725964	 5.021920	-4.214130	 176.517000	-11.074890	-34.049630	-5.120914	 171.974200	 86.287900	 179.504900	-2.376256	 30.409030	-0.042869	 1.809840	-12.793730	 178.974100	 3.766968	-47.925180	 5.869670	-175.843200	 81.731080	-178.148100	 2.403613	 22.176080	-0.129554	-5.904912	 1.354635	-2.080624	-8.753228	-1.179226	-0.729089	-10.136170	-3.028640	-0.939002	-91.809380	 77.596920	 179.153700	 36.597530	 69.817050	-39.585460	-8.141091	-4.008288	-20.390190	 6.333293	 3.496538	-5.343577	-3.812334	 37.924440	-2.927599	-2.450526	 36.184240	 0.754587	-1.378229	 35.397820	-2.634230	 0.466107	 5.881701	-3.362085	-2.315508	-13.275540	-2.112276	 89.764330	 79.276990	-179.628700	-36.267820	 70.449580	 39.029040	 4.335694	-7.711280	 30.254460	-12.326630	 2.452214	 9.589305	 6.437017	 35.671460	-0.771858	 2.830251	 35.756010	-7.813440	-2.350882	 35.473990	 5.254307
 6.683460	 7.159176	 0.100188	-84.325360	 0.824851	 3.716852	 5.023149	-4.512252	 176.602500	-10.856820	-34.482690	-5.050525	 172.085600	 85.921870	 179.608700	-2.374794	 30.676510	-0.048828	 1.955541	-13.271910	 179.000400	 4.173239	-48.944730	 6.402400	-176.206200	 81.278860	-177.544900	 2.402782	 22.627200	-0.120429	-6.026876	 1.495407	-2.029452	-8.804692	-1.208016	-0.791341	-10.240450	-3.076881	-0.953006	-91.805140	 77.679080	 179.191500	 36.602850	 69.643310	-39.777180	-8.359581	-3.968367	-20.855410	 6.188136	 3.508640	-5.347095	-3.812334	 37.924440	-2.927599	-2.450526	 36.184240	 0.754587	-1.378229	 35.397820	-2.634230	 0.367537	 5.535512	-3.462615	-2.411058	-13.070470	-2.103781	 89.765260	 79.189770	-179.616300	-36.354850	 70.533520	 39.346550	 4.398289	-7.616194	 29.776360	-12.484950	 2.448972	 9.586849	 6.437017	 35.671460	-0.771858	 2.830251	 35.756010	-7.813440	-2.350882	 35.473990	 5.254307
 6.683390	 7.156606	 0.099618	-84.411740	 0.837289	 3.625722	 5.140670	-4.660601	 176.760200	-10.795440	-34.720540	-4.962868	 172.348000	 85.723960	 179.534500	-2.374302	 30.767260	-0.050848	 2.153932	-13.912270	 179.113900	 4.411755	-50.140630	 6.884892	-176.284700	 81.139930	-177.329100	 2.401114	 23.421340	-0.104262	-6.152821	 1.721063	-1.864353	-8.918135	-1.221770	-0.805071	-10.409150	-3.100307	-0.970909	-91.800570	 77.772930	 179.239100	 36.649890	 69.495190	-40.040640	-8.501377	-3.921029	-21.036770	 6.112643	 3.514858	-5.348822	-3.812334	 37.924440	-2.927599	-2.450526	 36.184240	 0.754587	-1.378229	 35.397820	-2.634230	 0.166783	 5.590245	-3.205455	-2.608288	-13.203810	-2.506344	 89.767430	 79.091450	-179.627000	-36.449090	 70.580630	 39.647850	 4.493605	-7.546679	 29.537180	-12.571550	 2.447718	 9.585664	 6.437017	 35.671460	-0.771858	 2.830251	 35.756010	-7.813440	-2.350882	 35.473990	 5.254307
 6.683342	 7.152431	 0.098732	-84.627970	 0.857190	 3.311085	 5.526170	-4.783148	 177.113200	-10.885240	-34.951870	-4.781402	 173.829800	 85.504160	 178.396100	-2.373301	 30.945240	-0.054835	 2.274727	-15.444360	 179.537200	 4.995733	-52.794900	 7.803439	-176.139300	 81.263740	-177.360300	 2.395386	 25.546240	-0.060392	-6.311394	 2.154911	-1.430689	-9.020707	-1.282956	-0.759558	-10.539750	-3.207630	-0.992985	-91.793720	 77.942570	 179.298900	 36.777430	 69.236720	-40.637720	-8.725586	-3.827126	-21.161200	 6.021611	 3.519768	-5.350262	-3.812334	 37.924440	-2.927599	-2.450526	 36.184240	 0.754587	-1.378229	 35.397820	-2.634230	 0.025104	 5.462740	-3.172216	-2.730482	-13.362560	-2.701675	 89.772170	 78.911130	-179.679700	-36.680240	 70.627530	 40.219330	 4.687705	-7.419896	 29.257050	-12.652030	 2.446485	 9.583967	 6.437017	 35.671460	-0.771858	 2.830251	 35.756010	-7.813440	-2.350882	 35.473990	 5.254307
 6.683220	 7.147648	 0.097575	-85.004080	 0.895244	 2.781123	 6.078440	-4.744526	 177.690300	-11.177910	-34.993390	-4.563171	 175.262400	 85.378360	 177.306100	-2.371678	 31.229200	-0.061214	 2.416480	-17.947690	-179.743900	 6.184071	-56.829410	 9.450557	-175.590800	 82.090880	-177.754300	 2.378587	 29.673180	 0.028026	-6.440674	 2.575756	-0.768803	-9.065557	-1.297654	-0.614120	-10.598550	-3.335108	-1.010293	-91.786740	 78.158960	 179.333300	 36.885420	 68.929820	-41.376000	-8.978061	-3.708599	-21.134070	 5.962452	 3.519740	-5.350028	-3.812334	 37.924440	-2.927599	-2.450526	 36.184240	 0.754587	-1.378229	 35.397820	-2.634230	-0.023647	 5.351584	-3.243520	-2.775747	-13.611870	-2.828693	 89.775870	 78.688860	-179.704300	-37.011140	 70.651960	 40.908340	 4.933481	-7.276916	 29.091370	-12.697460	 2.447587	 9.583531	 6.437017	 35.671460	-0.771858	 2.830251	 35.756010	-7.813440	-2.350882	 35.473990	 5.254307
